<?xml version="1.0" standalone="no"?>
<!DOCTYPE svg PUBLIC "-//W3C//DTD SVG 20010904//EN"
 "http://www.w3.org/TR/2001/REC-SVG-20010904/DTD/svg10.dtd">
<svg version="1.0" xmlns="http://www.w3.org/2000/svg"
 width="512.000000pt" height="512.000000pt" viewBox="0 0 512.000000 512.000000"
 preserveAspectRatio="xMidYMid meet">
<metadata>
Created by potrace 1.11, written by Peter Selinger 2001-2013
</metadata>
<g transform="translate(0.000000,512.000000) scale(0.100000,-0.100000)"
fill="#000000" stroke="none">
<path d="M48 5107 c-59 -47 -63 -193 -7 -253 19 -20 31 -22 132 -24 493 -8
687 -100 725 -343 10 -66 3 -261 -12 -342 -2 -11 -9 -54 -16 -95 -9 -62 -44
-253 -65 -360 -18 -93 -55 -301 -59 -330 -2 -19 -7 -46 -10 -60 -15 -68 -23
-375 -11 -445 3 -16 8 -46 11 -64 7 -42 45 -118 74 -149 31 -33 90 -68 138
-83 l42 -12 -60 -21 c-116 -41 -192 -136 -205 -256 -10 -91 -5 -353 9 -435 2
-16 8 -50 11 -75 4 -25 9 -54 11 -65 2 -11 9 -47 14 -80 5 -33 12 -69 14 -80
7 -32 54 -277 59 -305 14 -77 27 -150 32 -185 3 -23 7 -52 10 -65 17 -85 24
-267 13 -342 -15 -113 -73 -201 -166 -254 -55 -30 -200 -70 -293 -79 -35 -3
-82 -8 -104 -10 -22 -2 -89 -5 -150 -6 -60 -1 -120 -6 -132 -12 -63 -28 -70
-201 -10 -258 21 -20 29 -21 197 -15 96 3 186 8 200 10 14 2 52 7 85 11 122
13 258 49 354 92 244 110 324 294 316 728 -2 99 -5 191 -8 205 -3 14 -10 57
-16 95 -13 86 -15 94 -52 275 -16 80 -34 159 -39 175 -5 17 -11 41 -14 55 -50
261 -56 307 -57 419 -1 130 34 201 117 236 52 21 76 26 184 32 131 8 158 18
193 75 26 41 30 58 30 121 1 61 -4 83 -25 123 -38 72 -63 87 -155 91 -170 8
-270 51 -315 135 -20 37 -23 59 -25 168 -1 69 3 150 8 180 9 54 38 201 44 230
53 234 99 461 110 545 3 22 9 67 14 100 10 64 7 393 -4 460 -22 138 -71 257
-132 319 -105 108 -301 186 -528 211 -33 4 -73 9 -90 11 -16 2 -106 6 -200 9
-136 5 -173 3 -187 -8z"/>
<path d="M1630 5112 c-54 -25 -88 -71 -91 -122 -4 -65 20 -108 76 -138 26 -14
98 -16 570 -18 297 -1 565 -4 595 -8 193 -25 289 -43 425 -82 461 -134 887
-431 1177 -820 306 -412 461 -890 452 -1397 -2 -132 -6 -178 -29 -344 -31
-227 -138 -524 -275 -764 -48 -83 -156 -240 -204 -297 -201 -237 -393 -399
-649 -546 -54 -31 -99 -56 -101 -56 -2 0 -42 -18 -89 -40 -196 -91 -449 -158
-707 -186 -36 -4 -303 -8 -595 -9 -291 -1 -541 -5 -555 -9 -97 -32 -123 -166
-46 -241 36 -35 64 -37 653 -32 318 2 589 7 603 10 14 3 48 8 75 11 109 13
273 49 399 88 39 12 73 23 76 23 3 0 43 16 90 34 630 245 1139 727 1415 1340
38 85 109 276 120 321 2 8 13 51 25 95 23 89 38 160 46 220 3 22 7 46 9 53 19
56 27 493 12 627 -16 140 -36 257 -62 350 -8 28 -16 61 -19 75 -2 14 -20 70
-39 125 -87 254 -195 464 -349 680 -39 55 -74 102 -77 105 -3 3 -31 34 -61 70
-289 343 -695 615 -1140 764 -71 23 -206 60 -260 70 -14 3 -47 9 -75 14 -27 6
-72 13 -100 16 -27 4 -66 9 -85 13 -51 9 -1192 14 -1210 5z"/>
<path d="M1932 4494 c-15 -6 -40 -26 -56 -43 -25 -26 -29 -39 -29 -81 0 -60
22 -96 75 -123 31 -15 73 -17 387 -19 323 -1 386 -5 556 -32 79 -13 232 -55
321 -89 251 -96 452 -226 640 -412 267 -265 421 -574 473 -955 13 -93 6 -350
-13 -448 -91 -488 -387 -896 -834 -1153 -90 -51 -279 -136 -347 -155 -5 -1
-41 -12 -80 -22 -73 -21 -197 -47 -275 -58 -25 -3 -216 -8 -424 -10 -414 -5
-414 -5 -457 -64 -52 -72 -13 -178 76 -207 34 -11 694 -10 795 1 281 31 561
115 800 239 79 41 272 166 329 214 149 122 186 158 299 293 88 104 81 94 157
215 145 230 240 500 272 770 9 76 9 319 0 406 -30 302 -162 636 -352 894 -350
473 -879 768 -1510 841 -108 12 -774 11 -803 -2z"/>
<path d="M1942 3983 c-119 -41 -131 -202 -19 -260 27 -14 81 -16 377 -18 190
-2 365 -6 390 -10 69 -10 188 -42 257 -69 64 -25 234 -113 243 -125 3 -4 26
-21 51 -38 61 -42 177 -159 238 -241 91 -121 166 -296 202 -467 17 -85 15
-323 -5 -412 -72 -328 -264 -594 -550 -762 -124 -72 -266 -126 -386 -146 -25
-4 -54 -10 -65 -12 -11 -3 -178 -7 -372 -9 -292 -2 -357 -6 -382 -18 -101 -53
-100 -200 2 -253 28 -14 73 -16 357 -16 390 1 445 5 613 49 34 9 67 17 72 18
28 5 150 55 226 93 264 132 471 328 621 587 32 55 58 105 58 111 0 5 6 22 14
36 12 23 56 147 62 174 25 112 34 161 40 206 7 61 7 283 0 316 -2 11 -7 43
-11 70 -20 148 -105 372 -193 512 -77 122 -213 276 -322 362 -64 52 -148 109
-159 109 -5 0 -11 3 -13 8 -5 12 -134 77 -220 111 -117 46 -228 73 -402 98
-81 11 -689 8 -724 -4z"/>
</g>
</svg>
